{"title":"Recoil.2011.BRRip.XviD.Ac3.Feel-Free","uid":7054136,"size":1280295843,"categoryP":"video","categoryS":"movies","magnet":"?xt=urn:btih:3d51b3aa1d668221e8645602918d1a9615d1d7af&amp;dn=Recoil.2011.BRRip.XviD.Ac3.Feel-Free&amp;tr=udp%3A%2F%2Ftracker.openbittorrent.com%3A80&amp;tr=udp%3A%2F%2Fopen.demonii.com%3A1337&amp;tr=udp%3A%2F%2Ftracker.coppersurfer.tk%3A6969&amp;tr=udp%3A%2F%2Fexodus.desync.com%3A6969","seeders":0,"leechers":1,"uploader":"misterw","files":11,"time":1330059087,"description":"Genre:Action\nLanguage:English\nIMDb:http://www.imdb.com/title/tt1839591/\nSource:BluRay.720p.DTS.x264-CHD Thanks!\nEncoder:Tony\n\nFormat : AVI\nFormat/Info : Audio Video Interleave\nFile size : 1.19 GiB\nDuration : 1h 33mn\nOverall bit rate : 1 816 Kbps\n\nVideo\nID : 0\nFormat : MPEG-4 Visual\nFormat profile : Advanced Simple@L5\nFormat settings, BVOP : 1\nFormat settings, QPel : No\nFormat settings, GMC : No warppoints\nFormat settings, Matrix : Default (H.263)\nCodec ID : XVID\nCodec ID/Hint : XviD\nDuration : 1h 33mn\nBit rate : 1 358 Kbps\nWidth : 640 pixels\nHeight : 360 pixels\nDisplay aspect ratio : 16:9\nFrame rate : 23.976 fps\nColor space : YUV\nChroma subsampling : 4:2:0\nBit depth : 8 bits\nScan type : Progressive\nCompression mode : Lossy\nBits/(Pixel*Frame) : 0.246\nStream size : 912 MiB (75%)\nWriting library : XviD 1.2.1 (UTC 2008-12-04)\n\nAudio\nID : 1\nFormat : AC-3\nFormat/Info : Audio Coding 3\nMode extension : CM (complete main)\nCodec ID : 2000\nDuration : 1h 33mn\nBit rate mode : Constant\nBit rate : 448 Kbps\nChannel(s) : 6 channels\nChannel positions : Front: L C R, Side: L R, LFE\nSampling rate : 48.0 KHz\nBit depth : 16 bits\nCompression mode : Lossy\nStream size : 301 MiB (25%)\nAlignment : Aligned on interleaves\nInterleave, duration : 42 ms (1.00 video frame)\nInterleave, preload duration : 512 ms\n\n\nPlot:\nA cop turns vigilante after his family is murdered, exacting vengeance on the killers - and then on all criminals who have slipped through the system.\n","torrent":{"xt":"urn:btih:3d51b3aa1d668221e8645602918d1a9615d1d7af","amp;dn":"Recoil.2011.BRRip.XviD.Ac3.Feel-Free","amp;tr":["udp%3A%2F%2Ftracker.openbittorrent.com%3A80","udp%3A%2F%2Fopen.demonii.com%3A1337","udp%3A%2F%2Ftracker.coppersurfer.tk%3A6969","udp%3A%2F%2Fexodus.desync.com%3A6969"],"infoHash":"3d51b3aa1d668221e8645602918d1a9615d1d7af","infoHashBuffer":{"type":"Buffer","data":[61,81,179,170,29,102,130,33,232,100,86,2,145,141,26,150,21,209,215,175]},"announce":[],"urlList":[]}}